# This file uses centimeters as units for non-parametric coordinates.

mtllib cortar_02.mtl
g transformaciones_01:default1
v -0.505326 -0.000000 -0.400372
v -0.505326 0.250000 -0.400372
v -0.004599 0.250000 -2.000372
v -0.004599 -0.000000 -2.000372
v -0.272797 0.250000 -1.197993
v -0.272797 -0.000000 -1.197993
v -0.205346 -0.000000 -0.400372
v -0.205346 0.250000 -0.400372
v -0.404599 -0.000000 -0.200372
v -0.138586 -0.000000 -0.974855
v -0.138586 0.250000 -0.974855
v -0.404599 0.250000 -0.200372
v -0.144035 -0.000000 -1.584287
v 0.002046 -0.000000 -1.274747
v 0.002046 0.250000 -1.274747
v -0.144035 0.250000 -1.584287
v 0.496128 -0.000000 -0.400372
v 0.496128 0.250000 -0.400372
v 0.263599 0.250000 -1.197993
v 0.263599 -0.000000 -1.197993
v 0.196148 -0.000000 -0.400372
v 0.196148 0.250000 -0.400372
v 0.395401 -0.000000 -0.200372
v 0.129389 -0.000000 -0.974855
v 0.129389 0.250000 -0.974855
v 0.395401 0.250000 -0.200372
v 0.134837 -0.000000 -1.584287
v 0.134837 0.250000 -1.584287
v 0.537344 0.054408 -0.700372
v 0.537342 0.179408 -0.700372
v 0.421054 0.179408 -1.099244
v 0.421050 0.054408 -1.099244
v 0.354431 0.054408 -1.299069
v 0.354434 0.179408 -1.299069
v 0.351717 0.054408 -0.983925
v 0.483634 0.054408 -0.600372
v 0.483636 0.179408 -0.600372
v 0.351720 0.179408 -0.983925
v 0.287340 0.054408 -1.500372
v 0.287349 0.179408 -1.500372
v 0.376783 0.054408 -1.137559
v 0.376785 0.179408 -1.137559
v -0.561913 0.083344 -0.700372
v -0.561910 0.208344 -0.700372
v -0.445622 0.208344 -1.099244
v -0.445619 0.083344 -1.099244
v -0.379000 0.083344 -1.299069
v -0.379003 0.208344 -1.299069
v -0.376286 0.083344 -0.983925
v -0.508203 0.083344 -0.600372
v -0.508205 0.208344 -0.600372
v -0.376289 0.208344 -0.983925
v -0.311909 0.083344 -1.500372
v -0.311917 0.208344 -1.500372
v -0.401351 0.083344 -1.137559
v -0.401354 0.208344 -1.137559
v -0.097965 -0.000000 -0.500372
v -0.097965 0.250000 -0.500372
v -0.047962 0.250000 -1.000372
v -0.047954 0.250000 -0.500372
v -0.047954 -0.000000 -0.500372
v -0.047962 -0.000000 -1.000372
v 0.102057 -0.000000 -0.500372
v 0.102057 0.250000 -0.500372
v 0.052054 0.250000 -1.000372
v 0.052046 0.250000 -0.500372
v 0.052046 -0.000000 -0.500372
v 0.052054 -0.000000 -1.000372
v -0.404599 -0.000000 -0.000372
v -0.404599 0.250000 -0.000372
v -0.404620 0.250000 -0.100372
v -0.304606 0.250000 -0.200372
v -0.404620 -0.000000 -0.100372
v -0.304606 -0.000000 -0.200372
v -0.499535 -0.000000 -0.200372
v -0.499535 0.250000 -0.200372
v -0.200005 -0.000000 -0.000372
v 0.200001 -0.000000 -0.000372
v 0.200001 0.250000 -0.000372
v -0.200005 0.250000 -0.000372
v 0.000000 -0.000000 -0.400372
v 0.000000 0.250000 -0.400372
v 0.099993 -0.000000 -0.067337
v -0.000005 -0.000000 -0.267337
v -0.100008 -0.000000 -0.067337
v 0.099993 0.250000 -0.067337
v -0.100008 0.250000 -0.067337
v -0.000005 0.250000 -0.267337
v 0.395401 -0.000000 -0.000372
v 0.395401 0.250000 -0.000372
v 0.395380 0.250000 -0.100372
v 0.495394 0.250000 -0.200372
v 0.395380 -0.000000 -0.100372
v 0.495394 -0.000000 -0.200372
v 0.300465 -0.000000 -0.200372
v 0.300465 0.250000 -0.200372
vt 0.659972 0.506354
vt 0.958558 0.924678
vt 0.675613 0.547238
vt 0.728194 0.505979
vt 0.958769 0.995328
vt 0.993157 0.995226
vt 0.957949 0.720196
vt 0.992341 0.720094
vt 0.957847 0.685805
vt 0.992238 0.685702
vt 0.957745 0.651413
vt 0.957451 0.552626
vt 0.991843 0.552524
vt 0.992136 0.651311
vt 0.991687 0.500956
vt 0.957299 0.501059
vt 0.758382 0.539841
vt 0.899183 0.537785
vt 0.855841 0.559654
vt 0.871883 0.510628
vt 0.702510 0.545015
vt 0.583656 0.506774
vt 0.546095 0.596225
vt 0.503578 0.572792
vt 0.644211 0.579977
vt 0.531849 0.546647
vt 0.699857 0.587184
vt 0.820026 0.553300
vt 0.992746 0.856353
vt 0.992949 0.924575
vt 0.743776 0.550099
vt 0.958354 0.856455
vt 0.956031 0.926829
vt 0.990423 0.926932
vt 0.990626 0.858709
vt 0.956234 0.858607
vt 0.644211 0.579977
vt 0.503578 0.572792
vt 0.546095 0.596225
vt 0.956742 0.687956
vt 0.991133 0.688059
vt 0.991235 0.653667
vt 0.956844 0.653565
vt 0.855841 0.559654
vt 0.899183 0.537785
vt 0.758382 0.539841
vt 0.991031 0.722450
vt 0.956639 0.722348
vt 0.871883 0.510628
vt 0.728194 0.505979
vt 0.659972 0.506354
vt 0.702510 0.545015
vt 0.675613 0.547238
vt 0.699857 0.587184
vt 0.743776 0.550099
vt 0.531849 0.546647
vt 0.820026 0.553300
vt 0.990202 0.999265
vt 0.955818 0.999161
vt 0.991529 0.554880
vt 0.957138 0.554778
vt 0.957299 0.501059
vt 0.991684 0.501159
vt 0.583656 0.506774
vt 0.866303 0.835223
vt 0.834934 0.835223
vt 0.834934 0.773842
vt 0.866303 0.773842
vt 0.866303 0.962949
vt 0.834934 0.962949
vt 0.834934 0.710696
vt 0.866303 0.710696
vt 0.829887 0.701381
vt 0.832417 0.767894
vt 0.824967 0.818495
vt 0.803929 0.862561
vt 0.809979 0.989650
vt 0.943999 0.710199
vt 0.912630 0.710199
vt 0.912630 0.680132
vt 0.943999 0.680132
vt 0.897307 0.862561
vt 0.891256 0.989651
vt 0.868821 0.767894
vt 0.876270 0.818495
vt 0.912629 0.878708
vt 0.912629 0.830515
vt 0.943998 0.830515
vt 0.943998 0.878708
vt 0.871350 0.701382
vt 0.912628 0.992518
vt 0.943997 0.992518
vt 0.835298 0.834725
vt 0.835298 0.773345
vt 0.866667 0.773345
vt 0.866667 0.834725
vt 0.835298 0.962451
vt 0.866667 0.962451
vt 0.835298 0.710199
vt 0.866667 0.710199
vt 0.871713 0.700884
vt 0.876634 0.817997
vt 0.869184 0.767396
vt 0.897672 0.862063
vt 0.891622 0.989153
vt 0.912630 0.710199
vt 0.912630 0.680132
vt 0.943999 0.680132
vt 0.943999 0.710199
vt 0.810345 0.989153
vt 0.804293 0.862064
vt 0.832780 0.767397
vt 0.825330 0.817998
vt 0.944000 0.878708
vt 0.912632 0.878708
vt 0.912631 0.830515
vt 0.944000 0.830515
vt 0.830251 0.700884
vt 0.944001 0.992518
vt 0.912632 0.992518
vt 0.530261 0.916088
vt 0.596798 0.909788
vt 0.596799 0.916088
vt 0.530261 0.941286
vt 0.596798 0.941286
vt 0.596798 0.947587
vt 0.603454 0.941286
vt 0.603454 0.916088
vt 0.669991 0.916089
vt 0.669991 0.941286
vt 0.530009 0.988637
vt 0.596667 0.988637
vt 0.596666 0.995304
vt 0.530009 0.961974
vt 0.596666 0.955306
vt 0.596666 0.961974
vt 0.603334 0.961974
vt 0.669991 0.961974
vt 0.669991 0.988637
vt 0.603334 0.988637
vt 0.779432 0.788815
vt 0.699446 0.795207
vt 0.694870 0.711036
vt 0.775077 0.708718
vt 0.654891 0.863873
vt 0.571438 0.892959
vt 0.617001 0.859170
vt 0.680812 0.763982
vt 0.584700 0.816819
vt 0.629366 0.750190
vt 0.549369 0.793135
vt 0.516054 0.770802
vt 0.560720 0.704173
vt 0.594034 0.726506
vt 0.602551 0.673729
vt 0.507656 0.673718
vt 0.507661 0.626271
vt 0.602556 0.626282
vt 0.697445 0.673739
vt 0.697450 0.626292
vt 0.792339 0.673749
vt 0.792344 0.626302
vt 0.782245 0.931147
vt 0.782510 0.995372
vt 0.718284 0.995637
vt 0.718020 0.931412
vt 0.781980 0.866922
vt 0.717755 0.867186
vt 0.781716 0.802696
vt 0.717490 0.802961
vt 0.450855 0.565910
vt 0.474590 0.518468
vt 0.498319 0.502587
vt 0.450849 0.597470
vt 0.403423 0.502565
vt 0.427142 0.518457
vt 0.802552 0.602550
vt 0.897448 0.602561
vt 0.873723 0.618445
vt 0.826276 0.618440
vt 0.849989 0.697450
vt 0.849994 0.665889
vt 0.779432 0.788815
vt 0.699446 0.795207
vt 0.694870 0.711036
vt 0.775077 0.708718
vt 0.654891 0.863873
vt 0.571438 0.892959
vt 0.617001 0.859170
vt 0.680812 0.763982
vt 0.584700 0.816819
vt 0.629366 0.750190
vt 0.549369 0.793135
vt 0.516054 0.770802
vt 0.560720 0.704173
vt 0.594034 0.726506
vn -0.948683 0.000000 -0.316228
vn -0.948683 0.000000 -0.316228
vn -0.948683 -0.000001 -0.316229
vn -0.948683 -0.000001 -0.316229
vn 0.000000 1.000000 0.000000
vn 0.000000 1.000000 0.000000
vn 0.000000 1.000000 0.000000
vn 0.000000 0.000000 1.000000
vn 0.000000 0.000000 1.000000
vn 0.708410 0.000000 0.705802
vn 0.708410 0.000000 0.705802
vn 0.000000 -1.000000 0.000000
vn 0.000000 -1.000000 0.000000
vn 0.000000 -1.000000 0.000000
vn -0.960032 -0.000001 -0.279890
vn -0.960032 -0.000001 -0.279890
vn -0.960032 -0.000001 -0.279890
vn -0.960032 -0.000001 -0.279890
vn 0.000000 -1.000000 0.000000
vn 0.000000 -1.000000 0.000000
vn 0.000000 -1.000000 0.000000
vn 0.000000 -1.000000 0.000000
vn 0.000000 -1.000000 0.000000
vn 0.000000 -1.000000 0.000000
vn 0.000000 -1.000000 0.000000
vn 0.000000 -1.000000 0.000000
vn 0.000000 1.000000 0.000000
vn 0.000000 1.000000 0.000000
vn 0.000000 1.000000 0.000000
vn 0.000000 1.000000 0.000000
vn 0.000000 1.000000 0.000000
vn 0.000000 1.000000 0.000000
vn 0.000000 1.000000 0.000000
vn 0.000000 1.000000 0.000000
vn -0.893107 0.000000 0.449844
vn 0.000000 0.000000 1.000000
vn 0.000000 0.000000 1.000000
vn -0.893107 0.000000 0.449844
vn 0.000000 1.000000 0.000000
vn 0.000000 1.000000 0.000000
vn 0.000000 1.000000 0.000000
vn -0.948684 0.000000 -0.316227
vn -0.948683 0.000000 -0.316228
vn -0.948683 0.000000 -0.316228
vn -0.948684 0.000000 -0.316227
vn 0.993315 0.000000 0.115436
vn 0.993315 0.000000 0.115436
vn 0.993315 0.000000 0.115436
vn 0.993315 0.000000 0.115436
vn 0.918890 0.000000 0.394514
vn 0.918890 0.000000 0.394514
vn 0.918890 0.000000 0.394514
vn 0.918890 0.000000 0.394514
vn 0.000000 -1.000000 0.000000
vn 0.000000 -1.000000 0.000000
vn 0.000000 -1.000000 0.000000
vn 0.948683 0.000000 -0.316228
vn 0.948683 -0.000001 -0.316229
vn 0.948683 -0.000001 -0.316229
vn 0.948683 0.000000 -0.316228
vn 0.000000 1.000000 0.000000
vn 0.000000 1.000000 0.000000
vn 0.000000 1.000000 0.000000
vn 0.000000 0.000000 1.000000
vn -0.708410 0.000000 0.705802
vn -0.708410 0.000000 0.705802
vn 0.000000 0.000000 1.000000
vn 0.000000 -1.000000 0.000000
vn 0.000000 -1.000000 0.000000
vn 0.000000 -1.000000 0.000000
vn 0.960032 -0.000001 -0.279890
vn 0.960032 -0.000001 -0.279890
vn 0.960032 -0.000001 -0.279890
vn 0.960032 -0.000001 -0.279890
vn 0.000000 -1.000000 0.000000
vn 0.000000 -1.000000 0.000000
vn 0.000000 -1.000000 0.000000
vn 0.000000 -1.000000 0.000000
vn 0.000000 -1.000000 0.000000
vn 0.000000 -1.000000 0.000000
vn 0.000000 -1.000000 0.000000
vn 0.000000 -1.000000 0.000000
vn 0.000000 1.000000 0.000000
vn 0.000000 1.000000 0.000000
vn 0.000000 1.000000 0.000000
vn 0.000000 1.000000 0.000000
vn 0.000000 1.000000 0.000000
vn 0.000000 1.000000 0.000000
vn 0.000000 1.000000 0.000000
vn 0.000000 1.000000 0.000000
vn 0.893107 0.000000 0.449844
vn 0.893107 0.000000 0.449844
vn 0.000000 0.000000 1.000000
vn 0.000000 0.000000 1.000000
vn 0.000000 1.000000 0.000000
vn 0.000000 1.000000 0.000000
vn 0.000000 1.000000 0.000000
vn 0.948684 0.000000 -0.316227
vn 0.948684 0.000000 -0.316227
vn 0.948683 0.000000 -0.316228
vn 0.948683 0.000000 -0.316228
vn -0.993315 0.000000 0.115436
vn -0.993315 0.000000 0.115436
vn -0.993315 0.000000 0.115436
vn -0.993315 0.000000 0.115436
vn -0.918890 0.000000 0.394514
vn -0.918890 0.000000 0.394514
vn -0.918890 0.000000 0.394514
vn -0.918890 0.000000 0.394514
vn 0.000000 -1.000000 0.000000
vn 0.000000 -1.000000 0.000000
vn 0.000000 -1.000000 0.000000
vn 0.948683 0.000000 -0.316228
vn 0.948683 0.000000 -0.316228
vn 0.948683 0.000000 -0.316228
vn 0.948683 0.000000 -0.316228
vn 0.960030 0.000000 -0.279896
vn 0.960030 0.000000 -0.279896
vn 0.960030 0.000000 -0.279896
vn 0.960030 0.000000 -0.279896
vn 0.948684 0.000000 -0.316227
vn 0.948684 0.000000 -0.316227
vn 0.948684 0.000000 -0.316227
vn 0.948684 0.000000 -0.316227
vn 0.000000 -1.000000 0.000000
vn 0.000000 -1.000000 0.000000
vn 0.000000 -1.000000 0.000000
vn 0.000000 -1.000000 0.000000
vn 0.000000 -1.000000 0.000000
vn 0.000000 -1.000000 0.000000
vn 0.000000 -1.000000 0.000000
vn 0.000000 -1.000000 0.000000
vn 0.000000 -1.000000 0.000000
vn 0.000000 -1.000000 0.000000
vn 0.000000 -1.000000 0.000000
vn 0.880961 0.000000 0.473189
vn 0.880961 0.000000 0.473189
vn 0.880961 0.000000 0.473189
vn 0.880961 0.000000 0.473189
vn 0.000000 1.000000 0.000000
vn 0.000000 1.000000 0.000000
vn 0.000000 1.000000 0.000000
vn 0.000000 1.000000 0.000000
vn 0.000000 1.000000 0.000000
vn 0.000000 1.000000 0.000000
vn 0.000000 1.000000 0.000000
vn 0.000000 1.000000 0.000000
vn -0.986948 0.000000 -0.161039
vn -0.986948 0.000000 -0.161039
vn -0.986948 0.000000 -0.161039
vn -0.986948 0.000000 -0.161039
vn 0.000000 1.000000 0.000000
vn 0.000000 1.000000 0.000000
vn 0.000000 1.000000 0.000000
vn -0.970932 0.000000 0.239356
vn -0.970932 0.000000 0.239356
vn -0.970932 0.000000 0.239356
vn -0.970932 0.000000 0.239356
vn -0.945635 0.000000 0.325230
vn -0.945635 0.000000 0.325230
vn -0.945635 0.000000 0.325230
vn -0.945635 0.000000 0.325230
vn -0.948683 0.000000 -0.316228
vn -0.948683 0.000000 -0.316228
vn -0.948683 0.000000 -0.316228
vn -0.948683 0.000000 -0.316228
vn -0.960030 0.000000 -0.279896
vn -0.960030 0.000000 -0.279896
vn -0.960030 0.000000 -0.279896
vn -0.960030 0.000000 -0.279896
vn -0.948684 0.000000 -0.316227
vn -0.948684 0.000000 -0.316227
vn -0.948684 0.000000 -0.316227
vn -0.948684 0.000000 -0.316227
vn 0.000000 -1.000000 0.000000
vn 0.000000 -1.000000 0.000000
vn 0.000000 -1.000000 0.000000
vn 0.000000 -1.000000 0.000000
vn 0.000000 -1.000000 0.000000
vn 0.000000 -1.000000 0.000000
vn 0.000000 -1.000000 0.000000
vn 0.000000 -1.000000 0.000000
vn 0.000000 -1.000000 0.000000
vn 0.000000 -1.000000 0.000000
vn 0.000000 -1.000000 0.000000
vn -0.880961 0.000000 0.473189
vn -0.880961 0.000000 0.473189
vn -0.880961 0.000000 0.473189
vn -0.880961 0.000000 0.473189
vn 0.000000 1.000000 0.000000
vn 0.000000 1.000000 0.000000
vn 0.000000 1.000000 0.000000
vn 0.000000 1.000000 0.000000
vn 0.000000 1.000000 0.000000
vn 0.000000 1.000000 0.000000
vn 0.000000 1.000000 0.000000
vn 0.000000 1.000000 0.000000
vn 0.986948 0.000000 -0.161039
vn 0.986948 0.000000 -0.161039
vn 0.986948 0.000000 -0.161039
vn 0.986948 0.000000 -0.161039
vn 0.000000 1.000000 0.000000
vn 0.000000 1.000000 0.000000
vn 0.000000 1.000000 0.000000
vn 0.970932 0.000000 0.239356
vn 0.970932 0.000000 0.239356
vn 0.970932 0.000000 0.239356
vn 0.970932 0.000000 0.239356
vn 0.945635 0.000000 0.325230
vn 0.945635 0.000000 0.325230
vn 0.945635 0.000000 0.325230
vn 0.945635 0.000000 0.325230
vn 0.000000 1.000000 0.000000
vn 0.000000 1.000000 0.000000
vn 0.000000 1.000000 0.000000
vn 0.000000 -1.000000 0.000000
vn 0.000000 -1.000000 0.000000
vn 0.000000 -1.000000 0.000000
vn -0.995037 0.000000 -0.099504
vn -0.995037 0.000000 -0.099504
vn -0.995037 0.000000 -0.099504
vn -0.995037 0.000000 -0.099504
vn 0.000000 0.000000 1.000000
vn 0.000000 0.000000 1.000000
vn 0.000000 0.000000 1.000000
vn 0.000000 0.000000 1.000000
vn 1.000000 0.000000 0.000000
vn 1.000000 0.000000 0.000000
vn 1.000000 0.000000 0.000000
vn 1.000000 0.000000 0.000000
vn 0.000000 1.000000 0.000000
vn 0.000000 1.000000 0.000000
vn 0.000000 1.000000 0.000000
vn 0.000000 -1.000000 0.000000
vn 0.000000 -1.000000 0.000000
vn 0.000000 -1.000000 0.000000
vn 0.995037 0.000000 -0.099504
vn 0.995037 0.000000 -0.099504
vn 0.995037 0.000000 -0.099504
vn 0.995037 0.000000 -0.099504
vn 0.000000 0.000000 1.000000
vn 0.000000 0.000000 1.000000
vn 0.000000 0.000000 1.000000
vn 0.000000 0.000000 1.000000
vn -1.000000 0.000000 0.000000
vn -1.000000 0.000000 0.000000
vn -1.000000 0.000000 0.000000
vn -1.000000 0.000000 0.000000
vn 0.894427 0.000000 0.447214
vn 0.894427 0.000000 0.447214
vn 0.894427 0.000000 0.447214
vn 0.894427 0.000000 0.447214
vn 0.000000 1.000000 0.000000
vn 0.000000 1.000000 0.000000
vn 0.000000 1.000000 0.000000
vn 0.000000 -1.000000 0.000000
vn 0.000000 -1.000000 0.000000
vn 0.000000 -1.000000 0.000000
vn -0.903417 0.000000 0.428764
vn -0.903417 0.000000 0.428764
vn -0.903417 0.000000 0.428764
vn -0.903417 0.000000 0.428764
vn 0.000000 -1.000000 0.000000
vn 0.000000 -1.000000 0.000000
vn 0.000000 -1.000000 0.000000
vn 0.000000 1.000000 0.000000
vn 0.000000 1.000000 0.000000
vn 0.000000 1.000000 0.000000
vn -0.707058 0.000000 -0.707155
vn -0.707058 0.000000 -0.707155
vn -0.707058 0.000000 -0.707155
vn -0.707058 0.000000 -0.707155
vn 0.725307 0.000000 -0.688425
vn 0.725307 0.000000 -0.688425
vn 0.725307 0.000000 -0.688425
vn 0.725307 0.000000 -0.688425
vn 0.000000 0.000000 1.000000
vn 0.000000 0.000000 1.000000
vn 0.000000 0.000000 1.000000
vn 0.000000 0.000000 1.000000
vn -0.894427 0.000000 -0.447214
vn -0.894427 0.000000 -0.447214
vn -0.894427 0.000000 -0.447214
vn -0.894427 0.000000 -0.447214
vn 0.894427 0.000000 -0.447214
vn 0.894427 0.000000 -0.447214
vn 0.894427 0.000000 -0.447214
vn 0.894427 0.000000 -0.447214
vn 0.000000 0.000000 -1.000000
vn 0.000000 0.000000 -1.000000
vn 0.000000 0.000000 -1.000000
vn 0.000000 0.000000 -1.000000
vn -0.894427 0.000000 0.447214
vn -0.894427 0.000000 0.447214
vn -0.894427 0.000000 0.447214
vn -0.894427 0.000000 0.447214
vn 0.894427 0.000000 0.447214
vn 0.894427 0.000000 0.447214
vn 0.894427 0.000000 0.447214
vn 0.894427 0.000000 0.447214
vn 0.000000 1.000000 0.000000
vn 0.000000 1.000000 0.000000
vn 0.000000 1.000000 0.000000
vn 0.000000 1.000000 0.000000
vn -0.000000 1.000000 0.000000
vn -0.000000 1.000000 0.000000
vn -0.000000 1.000000 0.000000
vn -0.000000 1.000000 0.000000
vn 0.000000 1.000000 0.000000
vn 0.000000 1.000000 0.000000
vn 0.000000 1.000000 0.000000
vn 0.000000 1.000000 0.000000
vn -0.000000 -1.000000 -0.000000
vn -0.000000 -1.000000 -0.000000
vn -0.000000 -1.000000 -0.000000
vn -0.000000 -1.000000 -0.000000
vn 0.000000 -1.000000 0.000000
vn 0.000000 -1.000000 0.000000
vn 0.000000 -1.000000 0.000000
vn 0.000000 -1.000000 0.000000
vn -0.000000 -1.000000 0.000000
vn -0.000000 -1.000000 0.000000
vn -0.000000 -1.000000 0.000000
vn -0.000000 -1.000000 0.000000
vn 0.894427 0.000000 0.447214
vn 0.894427 0.000000 0.447214
vn 0.894427 0.000000 0.447214
vn 0.894427 0.000000 0.447214
vn 0.000000 1.000000 0.000000
vn 0.000000 1.000000 0.000000
vn 0.000000 1.000000 0.000000
vn 0.000000 -1.000000 0.000000
vn 0.000000 -1.000000 0.000000
vn 0.000000 -1.000000 0.000000
vn -0.903417 0.000000 0.428764
vn -0.903417 0.000000 0.428764
vn -0.903417 0.000000 0.428764
vn -0.903417 0.000000 0.428764
vn 0.000000 -1.000000 0.000000
vn 0.000000 -1.000000 0.000000
vn 0.000000 -1.000000 0.000000
vn 0.000000 1.000000 0.000000
vn 0.000000 1.000000 0.000000
vn 0.000000 1.000000 0.000000
vn -0.707058 0.000000 -0.707155
vn -0.707058 0.000000 -0.707155
vn -0.707058 0.000000 -0.707155
vn -0.707058 0.000000 -0.707155
vn 0.725307 0.000000 -0.688425
vn 0.725307 0.000000 -0.688425
vn 0.725307 0.000000 -0.688425
vn 0.725307 0.000000 -0.688425
s off
g transformaciones_01:group25 transformaciones_01:pCube252 polySurface181
usemtl blinn2SG
f 16/30/1 13/2/2 6/32/3 5/29/4
f 11/17/5 12/18/6 8/19/7
f 12/10/8 9/9/9 7/11/10 8/14/11
f 7/23/12 9/24/13 10/25/14
f 5/29/15 6/32/16 1/7/17 2/8/18
f 10/25/19 9/24/20 1/26/21 6/3/22
f 13/31/23 14/27/24 10/25/25 6/3/26
f 5/4/27 11/17/28 15/21/29 16/1/30
f 2/20/31 12/18/32 11/17/33 5/4/34
f 1/7/35 9/9/36 12/10/37 2/8/38
f 16/1/39 15/21/40 3/22/41
f 4/5/42 13/2/43 16/30/44 3/6/45
f 7/11/46 10/12/47 11/13/48 8/14/49
f 15/15/50 11/13/51 10/12/52 14/16/53
f 4/28/54 14/27/55 13/31/56
f 28/33/57 19/36/58 20/35/59 27/34/60
f 25/37/61 22/39/62 26/38/63
f 26/40/64 22/43/65 21/42/66 23/41/67
f 21/44/68 24/46/69 23/45/70
f 19/36/71 18/48/72 17/47/73 20/35/74
f 24/46/75 20/50/76 17/49/77 23/45/78
f 27/51/79 20/50/80 24/46/81 14/52/82
f 19/53/83 28/55/84 15/54/85 25/37/86
f 18/56/87 19/53/88 25/37/89 26/38/90
f 17/47/91 18/48/92 26/40/93 23/41/94
f 28/55/95 3/57/96 15/54/97
f 4/58/98 3/59/99 28/33/100 27/34/101
f 21/42/102 22/43/103 25/61/104 24/60/105
f 15/62/106 14/63/107 24/60/108 25/61/109
f 4/64/110 27/51/111 14/52/112
f 31/65/113 32/66/114 33/67/115 34/68/116
f 30/69/117 29/70/118 32/66/119 31/65/120
f 34/68/121 33/67/122 39/71/123 40/72/124
f 39/73/125 33/74/126 41/75/127
f 35/76/128 41/75/129 33/74/130 32/66/131
f 36/77/132 35/76/133 32/66/134 29/70/135
f 37/78/136 36/79/137 29/80/138 30/81/139
f 31/65/140 38/82/141 37/83/142 30/69/143
f 34/84/144 42/85/145 38/82/146 31/65/147
f 41/86/148 35/87/149 38/88/150 42/89/151
f 40/90/152 42/85/153 34/84/154
f 39/91/155 41/86/156 42/89/157 40/92/158
f 35/87/159 36/79/160 37/78/161 38/88/162
f 45/93/163 48/94/164 47/95/165 46/96/166
f 44/97/167 45/93/168 46/96/169 43/98/170
f 48/94/171 54/99/172 53/100/173 47/95/174
f 53/101/175 55/102/176 47/103/177
f 49/104/178 46/96/179 47/103/180 55/102/181
f 50/105/182 43/98/183 46/96/184 49/104/185
f 51/106/186 44/107/187 43/108/188 50/109/189
f 45/93/190 44/97/191 51/110/192 52/111/193
f 48/112/194 45/93/195 52/111/196 56/113/197
f 55/114/198 56/115/199 52/116/200 49/117/201
f 54/118/202 48/112/203 56/113/204
f 53/119/205 54/120/206 56/115/207 55/114/208
f 49/117/209 52/116/210 51/106/211 50/109/212
f 59/121/213 58/122/214 60/123/215
f 62/124/216 61/125/217 57/126/218
f 57/127/219 58/128/220 59/129/221 62/130/222
f 60/123/223 58/128/224 57/127/225 61/125/226
f 62/124/227 59/121/228 60/123/229 61/125/230
f 65/131/231 66/132/232 64/133/233
f 68/134/234 63/135/235 67/136/236
f 63/137/237 68/138/238 65/139/239 64/140/240
f 66/132/241 67/136/242 63/137/243 64/140/244
f 68/134/245 67/136/246 66/132/247 65/131/248
f 70/141/249 69/142/250 74/143/251 72/144/252
f 70/145/253 72/146/254 71/147/255
f 73/148/256 74/143/257 69/142/258
f 70/145/259 76/149/260 75/150/261 69/142/262
f 73/148/263 69/142/264 75/150/265
f 70/145/266 71/147/267 76/149/268
g polySurface181
f 71/151/269 72/152/270 74/153/271 73/154/272
f 76/149/273 71/151/274 73/154/275 75/150/276
g transformaciones_01:group25 transformaciones_01:pCube252 polySurface181
f 77/155/277 78/156/278 79/157/279 80/158/280
f 81/159/281 77/155/282 80/158/283 82/160/284
f 78/161/285 81/159/286 82/160/287 79/162/288
f 83/163/289 85/164/290 87/165/291 86/166/292
f 84/167/293 83/163/294 86/166/295 88/168/296
f 85/169/297 84/167/298 88/168/299 87/170/300
g polySurface181
f 88/171/301 86/172/302 79/173/303 82/174/304
f 82/174/305 80/175/306 87/176/307 88/171/308
f 86/172/309 87/176/310 80/175/311 79/173/312
f 78/177/313 77/178/314 85/179/315 83/180/316
f 77/178/317 81/181/318 84/182/319 85/179/320
f 83/180/321 84/182/322 81/181/323 78/177/324
g transformaciones_01:group25 transformaciones_01:pCube252 polySurface181
f 90/183/325 89/184/326 94/185/327 92/186/328
f 90/187/329 92/188/330 91/189/331
f 93/190/332 94/185/333 89/184/334
f 90/187/335 96/191/336 95/192/337 89/184/338
f 93/190/339 89/184/340 95/192/341
f 90/187/342 91/189/343 96/191/344
g polySurface181
f 91/193/345 92/194/346 94/195/347 93/196/348
f 96/191/349 91/193/350 93/196/351 95/192/352
