# This file uses centimeters as units for non-parametric coordinates.

mtllib exit_logo_01.mtl
g default
v 2.569330 -4.065260 0.000000
v 2.611220 -1.066670 0.000000
v 3.634410 -1.066670 0.000000
v 3.634410 -5.000000 0.000000
v -1.684970 -5.106050 0.000000
v -1.684970 -4.065260 0.000000
v -8.000000 -5.066670 0.000000
v -1.684970 -8.065260 0.000000
v -1.684970 4.936150 0.000000
v -8.069410 8.000000 0.000000
v -5.813610 6.888330 0.000000
v 3.676290 7.934740 0.000000
v 2.569330 6.899580 0.000000
v 3.634410 3.000000 0.000000
v 2.611220 3.000000 0.000000
v 4.699480 3.974120 0.000000
v 7.930590 0.936146 0.000000
v 4.699480 1.937550 0.000000
v 4.687510 -0.065260 0.000000
v 4.741360 -2.062450 0.000000
v -0.578010 1.937550 0.000000
v -0.578010 -0.065260 0.000000
v 3.634410 -1.066670 1.000000
v 2.611220 -1.066670 1.000000
v 2.569330 -4.065260 1.000000
v 3.634410 -5.000000 1.000000
v -1.684970 -5.106050 1.000000
v -1.684970 -4.065260 1.000000
v -8.000000 -5.066670 1.000000
v -1.684970 -8.065260 1.000000
v -1.684970 4.936150 1.000000
v -5.813610 6.888330 1.000000
v -8.069410 8.000000 1.000000
v 3.676290 7.934740 1.000000
v 2.569330 6.899580 1.000000
v 3.634410 3.000000 1.000000
v 2.611220 3.000000 1.000000
v 4.699480 1.937550 1.000000
v 7.930590 0.936146 1.000000
v 4.699480 3.974120 1.000000
v 4.687510 -0.065260 1.000000
v -0.578010 1.937550 1.000000
v 4.741360 -2.062450 1.000000
v -0.578010 -0.065260 1.000000
vn 0.000000 0.000000 -1.000000
vn 0.000000 0.000000 -1.000000
vn 0.000000 0.000000 -1.000000
vn 0.000000 0.000000 -1.000000
vn 0.000000 0.000000 -1.000000
vn 0.000000 0.000000 -1.000000
vn 0.000000 0.000000 -1.000000
vn 0.000000 0.000000 -1.000000
vn 0.000000 0.000000 -1.000000
vn 0.000000 0.000000 -1.000000
vn 0.000000 0.000000 -1.000000
vn 0.000000 0.000000 -1.000000
vn 0.000000 0.000000 -1.000000
vn 0.000000 0.000000 -1.000000
vn 0.000000 0.000000 -1.000000
vn 0.000000 0.000000 -1.000000
vn 0.000000 0.000000 -1.000000
vn 0.000000 0.000000 -1.000000
vn 0.000000 0.000000 -1.000000
vn 0.000000 0.000000 -1.000000
vn 0.000000 0.000000 -1.000000
vn 0.000000 0.000000 -1.000000
vn 0.000000 0.000000 -1.000000
vn 0.000000 0.000000 -1.000000
vn 0.000000 0.000000 -1.000000
vn 0.000000 0.000000 -1.000000
vn 0.000000 0.000000 -1.000000
vn 0.000000 0.000000 -1.000000
vn 0.000000 0.000000 -1.000000
vn 0.000000 0.000000 -1.000000
vn 0.000000 0.000000 -1.000000
vn 0.000000 0.000000 -1.000000
vn 0.000000 0.000000 -1.000000
vn 0.000000 0.000000 -1.000000
vn 0.000000 0.000000 -1.000000
vn 0.000000 0.000000 -1.000000
vn 0.000000 0.000000 -1.000000
vn 0.000000 0.000000 -1.000000
vn 0.000000 0.000000 -1.000000
vn 0.000000 0.000000 -1.000000
vn 0.000000 0.000000 -1.000000
vn 0.000000 0.000000 -1.000000
vn 0.000000 0.000000 -1.000000
vn 0.000000 0.000000 -1.000000
vn 0.000000 0.000000 -1.000000
vn 0.000000 0.000000 -1.000000
vn 0.000000 0.000000 -1.000000
vn 0.000000 0.000000 -1.000000
vn 0.000000 0.000000 -1.000000
vn 0.000000 0.000000 -1.000000
vn 0.000000 0.000000 -1.000000
vn 0.000000 0.000000 -1.000000
vn 0.000000 0.000000 -1.000000
vn 0.000000 0.000000 -1.000000
vn 0.000000 0.000000 1.000000
vn 0.000000 0.000000 1.000000
vn 0.000000 0.000000 1.000000
vn 0.000000 0.000000 1.000000
vn 0.000000 0.000000 1.000000
vn 0.000000 0.000000 1.000000
vn 0.000000 0.000000 1.000000
vn 0.000000 0.000000 1.000000
vn 0.000000 0.000000 1.000000
vn 0.000000 0.000000 1.000000
vn 0.000000 0.000000 1.000000
vn 0.000000 0.000000 1.000000
vn 0.000000 0.000000 1.000000
vn 0.000000 0.000000 1.000000
vn 0.000000 0.000000 1.000000
vn 0.000000 0.000000 1.000000
vn 0.000000 0.000000 1.000000
vn 0.000000 0.000000 1.000000
vn 0.000000 0.000000 1.000000
vn 0.000000 0.000000 1.000000
vn 0.000000 0.000000 1.000000
vn 0.000000 0.000000 1.000000
vn 0.000000 0.000000 1.000000
vn 0.000000 0.000000 1.000000
vn 0.000000 0.000000 1.000000
vn 0.000000 0.000000 1.000000
vn 0.000000 0.000000 1.000000
vn 0.000000 0.000000 1.000000
vn 0.000000 0.000000 1.000000
vn 0.000000 0.000000 1.000000
vn 0.000000 0.000000 1.000000
vn 0.000000 0.000000 1.000000
vn 0.000000 0.000000 1.000000
vn 0.000000 0.000000 1.000000
vn 0.000000 0.000000 1.000000
vn 0.000000 0.000000 1.000000
vn 0.000000 0.000000 1.000000
vn 0.000000 0.000000 1.000000
vn 0.000000 0.000000 1.000000
vn 0.000000 0.000000 1.000000
vn 0.000000 0.000000 1.000000
vn 0.000000 0.000000 1.000000
vn 0.000000 0.000000 1.000000
vn 0.000000 0.000000 1.000000
vn 0.000000 0.000000 1.000000
vn 0.000000 0.000000 1.000000
vn 0.000000 0.000000 1.000000
vn 0.000000 0.000000 1.000000
vn 0.000000 0.000000 1.000000
vn 0.000000 0.000000 1.000000
vn 0.000000 0.000000 1.000000
vn 0.000000 0.000000 1.000000
vn 0.000000 0.000000 1.000000
vn 0.000000 0.000000 1.000000
vn 0.007403 -0.999973 0.000000
vn 0.007403 -0.999973 0.000000
vn 0.007403 -0.999973 0.000000
vn 0.007403 -0.999973 0.000000
vn 0.007403 -0.999973 0.000000
vn 0.007403 -0.999973 0.000000
vn 1.000000 0.000000 0.000000
vn 1.000000 0.000000 0.000000
vn 1.000000 0.000000 0.000000
vn 1.000000 0.000000 0.000000
vn 1.000000 0.000000 0.000000
vn 1.000000 0.000000 0.000000
vn 0.000000 1.000000 0.000000
vn 0.000000 1.000000 0.000000
vn 0.000000 1.000000 0.000000
vn 0.000000 1.000000 0.000000
vn 0.000000 1.000000 0.000000
vn 0.000000 1.000000 0.000000
vn -0.999902 0.013967 0.000000
vn -0.999902 0.013967 0.000000
vn -0.999902 0.013967 0.000000
vn -0.999902 0.013967 0.000000
vn -0.999902 0.013967 0.000000
vn -0.999902 0.013967 0.000000
vn 0.000000 1.000000 0.000000
vn 0.000000 1.000000 0.000000
vn 0.000000 1.000000 0.000000
vn 0.000000 1.000000 0.000000
vn 0.000000 1.000000 0.000000
vn 0.000000 1.000000 0.000000
vn 1.000000 0.000000 0.000000
vn 1.000000 0.000000 0.000000
vn 1.000000 0.000000 0.000000
vn 1.000000 0.000000 0.000000
vn 1.000000 0.000000 0.000000
vn 1.000000 0.000000 0.000000
vn 0.427461 0.904034 0.000000
vn 0.427461 0.904034 0.000000
vn 0.427461 0.904034 0.000000
vn 0.427461 0.904034 0.000000
vn 0.427461 0.904034 0.000000
vn 0.427461 0.904034 0.000000
vn 0.001342 -0.999999 0.000000
vn 0.001342 -0.999999 0.000000
vn 0.001342 -0.999999 0.000000
vn 0.001342 -0.999999 0.000000
vn 0.001342 -0.999999 0.000000
vn 0.001342 -0.999999 0.000000
vn -0.999944 -0.010575 0.000000
vn -0.999944 -0.010575 0.000000
vn -0.999944 -0.010575 0.000000
vn -0.999944 -0.010575 0.000000
vn -0.999944 -0.010575 0.000000
vn -0.999944 -0.010575 0.000000
vn 0.000000 -1.000000 0.000000
vn 0.000000 -1.000000 0.000000
vn 0.000000 -1.000000 0.000000
vn 0.000000 -1.000000 0.000000
vn 0.000000 -1.000000 0.000000
vn 0.000000 -1.000000 0.000000
vn 0.999965 -0.008384 0.000000
vn 0.999965 -0.008384 0.000000
vn 0.999965 -0.008384 0.000000
vn 0.999965 -0.008384 0.000000
vn 0.999965 -0.008384 0.000000
vn 0.999965 -0.008384 0.000000
vn 0.000000 1.000000 0.000000
vn 0.000000 1.000000 0.000000
vn 0.000000 1.000000 0.000000
vn 0.000000 1.000000 0.000000
vn 0.000000 1.000000 0.000000
vn 0.000000 1.000000 0.000000
vn -1.000000 0.000000 0.000000
vn -1.000000 0.000000 0.000000
vn -1.000000 0.000000 0.000000
vn -1.000000 0.000000 0.000000
vn -1.000000 0.000000 0.000000
vn -1.000000 0.000000 0.000000
vn -0.425118 -0.905138 0.000000
vn -0.425118 -0.905138 0.000000
vn -0.425118 -0.905138 0.000000
vn -0.425118 -0.905138 0.000000
vn -0.425118 -0.905138 0.000000
vn -0.425118 -0.905138 0.000000
vn 1.000000 0.000000 0.000000
vn 1.000000 0.000000 0.000000
vn 1.000000 0.000000 0.000000
vn 1.000000 0.000000 0.000000
vn 1.000000 0.000000 0.000000
vn 1.000000 0.000000 0.000000
vn 0.684997 0.728546 0.000000
vn 0.684997 0.728546 0.000000
vn 0.684997 0.728546 0.000000
vn 0.684997 0.728546 0.000000
vn 0.684997 0.728546 0.000000
vn 0.684997 0.728546 0.000000
vn -1.000000 0.000000 0.000000
vn -1.000000 0.000000 0.000000
vn -1.000000 0.000000 0.000000
vn -1.000000 0.000000 0.000000
vn -1.000000 0.000000 0.000000
vn -1.000000 0.000000 0.000000
vn 0.000000 1.000000 0.000000
vn 0.000000 1.000000 0.000000
vn 0.000000 1.000000 0.000000
vn 0.000000 1.000000 0.000000
vn 0.000000 1.000000 0.000000
vn 0.000000 1.000000 0.000000
vn -1.000000 0.000000 0.000000
vn -1.000000 0.000000 0.000000
vn -1.000000 0.000000 0.000000
vn -1.000000 0.000000 0.000000
vn -1.000000 0.000000 0.000000
vn -1.000000 0.000000 0.000000
vn 0.000000 -1.000000 0.000000
vn 0.000000 -1.000000 0.000000
vn 0.000000 -1.000000 0.000000
vn 0.000000 -1.000000 0.000000
vn 0.000000 -1.000000 0.000000
vn 0.000000 -1.000000 0.000000
vn -0.999637 -0.026954 0.000000
vn -0.999637 -0.026954 0.000000
vn -0.999637 -0.026954 0.000000
vn -0.999637 -0.026954 0.000000
vn -0.999637 -0.026954 0.000000
vn -0.999637 -0.026954 0.000000
vn 0.684997 -0.728546 0.000000
vn 0.684997 -0.728546 0.000000
vn 0.684997 -0.728546 0.000000
vn 0.684997 -0.728546 0.000000
vn 0.684997 -0.728546 0.000000
vn 0.684997 -0.728546 0.000000
s off
g exit1:OpenSCAD_Model
usemtl initialShadingGroup
f 1//1 2//2 3//3
f 4//4 5//5 1//6
f 1//7 5//8 6//9
f 4//10 1//11 3//12
f 5//13 7//14 6//15
f 5//16 8//17 7//18
f 6//19 7//20 9//21
f 7//22 10//23 11//24
f 9//25 7//26 11//27
f 11//28 10//29 12//30
f 13//31 11//32 12//33
f 14//34 13//35 12//36
f 15//37 13//38 14//39
f 16//40 17//41 18//42
f 18//43 17//44 19//45
f 17//46 20//47 19//48
f 18//49 19//50 21//51
f 21//52 19//53 22//54
f 23//55 24//56 25//57
f 23//58 25//59 26//60
f 25//61 27//62 26//63
f 28//64 27//65 25//66
f 28//67 29//68 27//69
f 29//70 30//71 27//72
f 31//73 29//74 28//75
f 32//76 33//77 29//78
f 32//79 29//80 31//81
f 34//82 32//83 35//84
f 34//85 33//86 32//87
f 34//88 35//89 36//90
f 36//91 35//92 37//93
f 38//94 39//95 40//96
f 41//97 39//98 38//99
f 42//100 41//101 38//102
f 41//103 43//104 39//105
f 44//106 41//107 42//108
f 4//109 27//110 5//111
f 4//112 26//113 27//114
f 3//115 26//116 4//117
f 3//118 23//119 26//120
f 2//121 23//122 3//123
f 2//124 24//125 23//126
f 1//127 24//128 2//129
f 1//130 25//131 24//132
f 6//133 25//134 1//135
f 6//136 28//137 25//138
f 9//139 28//140 6//141
f 9//142 31//143 28//144
f 11//145 31//146 9//147
f 11//148 32//149 31//150
f 13//151 32//152 11//153
f 13//154 35//155 32//156
f 15//157 35//158 13//159
f 15//160 37//161 35//162
f 14//163 37//164 15//165
f 14//166 36//167 37//168
f 12//169 36//170 14//171
f 12//172 34//173 36//174
f 10//175 34//176 12//177
f 10//178 33//179 34//180
f 7//181 33//182 10//183
f 7//184 29//185 33//186
f 8//187 29//188 7//189
f 8//190 30//191 29//192
f 5//193 30//194 8//195
f 5//196 27//197 30//198
f 16//199 39//200 17//201
f 16//202 40//203 39//204
f 18//205 40//206 16//207
f 18//208 38//209 40//210
f 21//211 38//212 18//213
f 21//214 42//215 38//216
f 22//217 42//218 21//219
f 22//220 44//221 42//222
f 19//223 44//224 22//225
f 19//226 41//227 44//228
f 20//229 41//230 19//231
f 20//232 43//233 41//234
f 17//235 43//236 20//237
f 17//238 39//239 43//240
